{"title":"NCIS.S13.COMPLETE.720p.HDTV x264-DIMENSION","uid":14714788,"size":19997348119,"categoryP":"video","categoryS":"hd___tv_shows","magnet":"?xt=urn:btih:5f08f2df9d2a470fd84c609192f3cc92182e3a0a&amp;dn=NCIS.S13.COMPLETE.720p.HDTV+x264-DIMENSION&amp;tr=udp%3A%2F%2Ftracker.leechers-paradise.org%3A6969&amp;tr=udp%3A%2F%2Fzer0day.ch%3A1337&amp;tr=udp%3A%2F%2Fopen.demonii.com%3A1337&amp;tr=udp%3A%2F%2Ftracker.coppersurfer.tk%3A6969&amp;tr=udp%3A%2F%2Fexodus.desync.com%3A6969","seeders":45,"leechers":58,"uploader":"LeRalouf","files":48,"time":1464453001,"description":"NCIS S13 COMPLETE 720p HDTV x264-DIMENSION\r\n\r\nGeneral\r\nFormat : Matroska\r\nFormat version : Version 4 / Version 2\r\nFile size : 771 MiB\r\nDuration : 43mn 52s\r\nOverall bit rate : 2 456 Kbps\r\nEncoded date : UTC 2015-09-22 14:28:26\r\nWriting application : mkvmerge v8.1.0 ('Psychedelic Postcard') 64bit\r\nWriting library : libebml v1.3.1 + libmatroska v1.4.2\r\nDURATION : 00:43:52.128000000\r\nNUMBER_OF_FRAMES : 82254\r\nNUMBER_OF_BYTES : 126342144\r\n_STATISTICS_WRITING_APP : mkvmerge v8.1.0 ('Psychedelic Postcard') 64bit\r\n_STATISTICS_WRITING_DATE_UTC : 2015-09-22 14:28:26\r\n_STATISTICS_TAGS : BPS DURATION NUMBER_OF_FRAMES NUMBER_OF_BYTES\r\n\r\nVideo\r\nID : 1\r\nFormat : AVC\r\nFormat/Info : Advanced Video Codec\r\nFormat profile :   \r\nFormat settings, CABAC : Yes\r\nFormat settings, ReFrames : 9 frames\r\nCodec ID : V_MPEG4/ISO/AVC\r\nDuration : 43mn 52s\r\nBit rate : 2 023 Kbps\r\nWidth : 1 280 pixels\r\nHeight : 720 pixels\r\nDisplay aspect ratio : 16:9\r\nFrame rate mode : Constant\r\nFrame rate : 23.976 fps\r\nColor space : YUV\r\nChroma subsampling : 4:2:0\r\nBit depth : 8 bits\r\nScan type : Progressive\r\nBits/(Pixel*Frame) : 0.092\r\nStream size : 635 MiB (82%)\r\nWriting library : x264 core 148 r2597 e86f3a1\r\nEncoding settings : cabac=1 / ref=9 / deblock=1:-2:-2 / analyse=0x3:0x133 / me=umh / subme=10 / psy=1 / psy_rd=1.00:0.00 / mixed_ref=1 / me_range=32 / chroma_me=1 / trellis=2 / 8x8dct=1 / cqm=0 / deadzone=21,11 / fast_pskip=0 / chroma_qp_offset=-2 / threads=16 / lookahead_threads=1 / sliced_threads=0 / nr=0 / decimate=1 / interlaced=0 / bluray_compat=0 / constrained_intra=0 / bframes=5 / b_pyramid=2 / b_adapt=2 / b_bias=0 / direct=3 / weightb=1 / open_gop=0 / weightp=2 / keyint=250 / keyint_min=23 / scenecut=40 / intra_refresh=0 / rc_lookahead=60 / rc=crf / mbtree=1 / crf=18.0 / qcomp=0.60 / qpmin=0 / qpmax=69 / qpstep=4 / ip_ratio=1.40 / aq=1:1.00\r\nLanguage : English\r\nDefault : Yes\r\nForced : No\r\nMatrix coefficients : BT.709\r\nDURATION : 00:43:52.088000000\r\nNUMBER_OF_FRAMES : 63107\r\nNUMBER_OF_BYTES : 681264461\r\n_STATISTICS_WRITING_APP : mkvmerge v8.1.0 ('Psychedelic Postcard') 64bit\r\n_STATISTICS_WRITING_DATE_UTC : 2015-09-22 14:28:26\r\n_STATISTICS_TAGS : BPS DURATION NUMBER_OF_FRAMES NUMBER_OF_BYTES\r\n\r\nAudio\r\nID : 2\r\nFormat : AC-3\r\nFormat/Info : Audio Coding 3\r\nMode extension : CM (complete main)\r\nFormat settings, Endianness : Big\r\nCodec ID : A_AC3\r\nDuration : 43mn 52s\r\nBit rate mode : Constant\r\nBit rate : 384 Kbps\r\nChannel(s) : 6 channels\r\nChannel positions : Front: L C R, Side: L R, LFE\r\nSampling rate : 48.0 KHz\r\nBit depth : 16 bits\r\nCompression mode : Lossy\r\nStream size : 120 MiB (16%)\r\nDefault : Yes\r\nForced : No\r\n\r\nThe 13th season 720p, complete, with english subtitles (.srt)\r\n\r\nNote: episode 12 contains NCIS: New Orleans S02E12, it's a crossover","torrent":{"xt":"urn:btih:5f08f2df9d2a470fd84c609192f3cc92182e3a0a","amp;dn":"NCIS.S13.COMPLETE.720p.HDTV+x264-DIMENSION","amp;tr":["udp%3A%2F%2Ftracker.leechers-paradise.org%3A6969","udp%3A%2F%2Fzer0day.ch%3A1337","udp%3A%2F%2Fopen.demonii.com%3A1337","udp%3A%2F%2Ftracker.coppersurfer.tk%3A6969","udp%3A%2F%2Fexodus.desync.com%3A6969"],"infoHash":"5f08f2df9d2a470fd84c609192f3cc92182e3a0a","infoHashBuffer":{"type":"Buffer","data":[95,8,242,223,157,42,71,15,216,76,96,145,146,243,204,146,24,46,58,10]},"announce":[],"urlList":[]}}